<?xml version="1.0" encoding="UTF-8"?>
<svg id="Layer_1" xmlns="http://www.w3.org/2000/svg" xmlns:xlink="http://www.w3.org/1999/xlink" version="1.1" viewBox="0 0 336.62 336.35">
  <!-- Generator: Adobe Illustrator 29.6.1, SVG Export Plug-In . SVG Version: 2.1.1 Build 9)  -->
  <defs>
    <style>
      .st0 {
        fill: none;
      }

      .st1 {
        mask: url(#mask);
      }

      .st2 {
        fill: #931fb9;
      }

      .st3 {
        fill: #00a14b;
      }

      .st4 {
        fill: #3d73ff;
      }

      .st5 {
        fill: #f8ba16;
      }

      .st6 {
        stroke: #00a33c;
        stroke-miterlimit: 10;
      }

      .st6, .st7 {
        fill-opacity: 0;
      }

      .st8 {
        fill: #ed1c24;
      }

      .st9 {
        fill: #f1f2f2;
      }

      .st10 {
        opacity: .5;
      }

      .st11 {
        fill: #ffa5a5;
      }

      .st12 {
        fill: #f5811f;
      }

      .st7 {
        stroke: #747474;
        stroke-dasharray: 8.2;
        stroke-miterlimit: 4;
        stroke-width: 1px;
      }

      .st13 {
        clip-path: url(#clippath);
      }
    </style>
    <clipPath id="clippath">
      <rect class="st0" x="-56.35" y="-56.1" width="450" height="450"/>
    </clipPath>
    <mask id="mask" x="-71.24" y="-71.6" width="479.74" height="480.26" maskUnits="userSpaceOnUse">
      <g id="__lottie_element_1846_1">
        <g id="__lottie_element_1846">
          <path class="st11" d="M168.65,3.3c91.39,0,165.59,74.2,165.59,165.59s-74.2,165.59-165.59,165.59S3.06,260.29,3.06,168.9,77.26,3.3,168.65,3.3Z"/>
        </g>
      </g>
    </mask>
  </defs>
  <g class="st13">
    <g>
      <g class="st1">
        <g id="Network">
          <g class="st10">
            <g>
              <path class="st6" d="M399.81,120.8H-62.85"/>
              <path class="st6" d="M-62.85,75.11h462.66"/>
              <path class="st6" d="M-62.85,216.96h462.66"/>
              <path class="st6" d="M399.81,265.49H-62.85"/>
              <path class="st6" d="M-62.85,340.48h462.66"/>
              <path class="st6" d="M399.81,367.79H-62.85"/>
              <path class="st6" d="M399.81-2.72H-62.85"/>
              <path class="st6" d="M-62.85-30.13h462.66"/>
              <path class="st6" d="M168.25-71.6v480.26"/>
              <path class="st6" d="M168.5-63.11C136.04-22.92,95.86,17.72,33.26,123.75-29.35,229.78-14.16,364.03,113.2,395.56"/>
              <path class="st6" d="M176.22-63.23c9.78,13.25-7.3,36.67-75.59,140.46-67.68,102.86-133.39,276.8,12.57,318.34"/>
              <path class="st6" d="M167.8-66.26c-58.33,1.48-103.01,30.3-67.16,143.48,18.28,57.7,103.1,196.53,115.35,263.19,8.04,43.73-16.67,57.44-48.19,62.38"/>
              <path class="st6" d="M167.8,402.79c-22.68-17.5-72.58-59.9-72.58-230.86,0-200.11,61.38-235.17,61.38-235.17"/>
              <path class="st6" d="M143.51-63.23S31.45-28.18,31.45,171.93c0,170.95,91.46,213.36,132.13,230.86"/>
              <path class="st6" d="M156.15,402.53c-65.12-3.49-80.11-63.76-54.53-136.51C127.2,193.28,213.41,50.93,219.66.46c6.24-50.48-8.3-63.56-36.03-65.24"/>
              <path class="st6" d="M167.8,402.79c43.37,0-40.15-97.24-66.17-136.76-26.03-39.53-56.85-100.14-68.36-142.28C21.74,81.61-.2-26.56,114.2-58.09"/>
              <path class="st6" d="M167.8,402.79c-52.57-72.67-99.14-119.41-133.22-184.08C14.79,181.17-5.75,121.27-4.19,77.37-1.42-.5,51.15-30.55,51.15-30.55"/>
            </g>
            <g>
              <path class="st6" d="M170.3-62.95c32.46,40.18,72.64,80.82,135.25,186.85,62.6,106.03,47.42,240.29-79.94,271.82"/>
              <path class="st6" d="M162.58-63.08c-9.78,13.25,7.3,36.67,75.59,140.46,67.68,102.86,133.39,276.8-12.57,318.34"/>
              <path class="st6" d="M171-66.1c58.33,1.48,100.76,30.3,64.91,143.48-18.28,57.7-104.6,196.43-116.85,263.09-8.04,43.73,20.42,57.54,51.94,62.48"/>
              <path class="st6" d="M171,402.95c22.68-17.5,72.58-59.9,72.58-230.86,0-200.11-61.38-235.17-61.38-235.17"/>
              <path class="st6" d="M195.29-63.08s112.06,35.06,112.06,235.17c0,170.95-91.46,213.36-132.13,230.86"/>
              <path class="st6" d="M182.65,402.69c65.12-3.49,80.11-63.76,54.53-136.51C211.6,193.44,125.39,51.09,119.14.61c-6.24-50.48,8.3-63.56,36.03-65.24"/>
              <path class="st6" d="M171,402.95c-43.37,0,40.15-97.24,66.17-136.76,26.03-39.53,56.85-100.14,68.36-142.28,11.52-42.14,33.46-150.31-80.94-181.83"/>
              <path class="st6" d="M171,402.95c52.57-72.67,99.14-119.41,133.22-184.08,19.79-37.54,40.33-97.44,38.77-141.34-2.77-77.87-55.33-107.92-55.33-107.92"/>
            </g>
            <g>
              <path class="st6" d="M170.41,402.95s86.99.57,70.81-35.77c-19.33-43.42-155.19-100.22-236.25-172.99-81.06-72.77-49.68-118.67-49.68-118.67"/>
              <path class="st6" d="M-58,120.81s-16.35,60.76,12.87,97.16c69.33,86.35,215.42,135.92,242.31,170.38,11.17,14.3-24.39,14.6-24.39,14.6"/>
              <path class="st6" d="M47.02-30.14S-36.85,5.78-4.14,75.19c39.5,83.83,259.48,176.91,296.46,246.68,38.34,72.33-122.36,81.07-122.36,81.07"/>
              <path class="st6" d="M295.69,367.62s81.85-30.02,46.26-103.72C297.16,171.15,86.4,98.9,46.95,15.35,14.19-54,172.8-66.1,172.8-66.1"/>
              <path class="st6" d="M407.77,171.8s3.84-20.86-19.68-50.99c-23.81-30.5-36.84-43.58-105.07-86.73C218.78-6.54,164.62-27.52,145.45-50.6c-11.68-14.06,27.34-15.5,27.34-15.5"/>
              <path class="st6" d="M172.8-66.1s-87.36,3.13-74.63,36.68C109.2-.35,151.11,21.6,236.56,74.68c76.78,47.69,136.53,99.86,151.65,142.77,8.87,25.17,0,45.49,0,45.49"/>
            </g>
            <g>
              <path class="st6" d="M166.08,402.95s-87.84.15-70.76-35.77c20.58-43.28,157.83-95.78,234.84-172.95,76.91-77.08,50.88-118.71,50.88-118.71"/>
              <path class="st6" d="M395.26,120.81s16.35,60.76-12.87,97.16c-69.33,86.35-215.42,135.92-242.31,170.38-11.17,14.3,24.39,14.6,24.39,14.6"/>
              <path class="st6" d="M287.23-30.14s83.74,35.92,51.09,105.33c-39.44,83.83-259.1,176.91-296.03,246.68-38.28,72.33,122.18,81.07,122.18,81.07"/>
              <path class="st6" d="M41.57,367.62s-85.13-31.7-46.26-103.72C44.37,172.99,253.39,91.72,290.32,15.35c33.4-69.05-125.85-81.46-125.85-81.46"/>
              <path class="st6" d="M-70.51,171.8s-3.84-20.86,19.68-50.99C-27.02,90.31-13.98,77.22,54.25,34.08,118.48-6.54,172.64-27.52,191.81-50.6c11.68-14.06-27.34-15.5-27.34-15.5"/>
              <path class="st6" d="M164.46-66.1s87.36,3.13,74.63,36.68C228.06-.35,186.15,21.6,100.7,74.68,23.92,122.37-35.83,174.54-50.95,217.45c-8.87,25.17,0,45.49,0,45.49"/>
            </g>
            <g>
              <path class="st6" d="M170.41,402.95s86.99.57,70.81-35.77c-19.33-43.42-155.19-100.22-236.25-172.99-81.06-72.77-49.68-118.67-49.68-118.67"/>
              <path class="st6" d="M-58,120.81s-16.35,60.76,12.87,97.16c69.33,86.35,215.42,135.92,242.31,170.38,11.17,14.3-24.39,14.6-24.39,14.6"/>
              <path class="st6" d="M47.02-30.14S-36.85,5.78-4.14,75.19c39.5,83.83,259.48,176.91,296.46,246.68,38.34,72.33-122.36,81.07-122.36,81.07"/>
              <path class="st6" d="M295.69,367.62s81.85-30.02,46.26-103.72C297.16,171.15,86.4,98.9,46.95,15.35,14.19-54,172.8-66.1,172.8-66.1"/>
              <path class="st6" d="M407.77,171.8s3.84-20.86-19.68-50.99c-23.81-30.5-36.84-43.58-105.07-86.73C218.78-6.54,164.62-27.52,145.45-50.6c-11.68-14.06,27.34-15.5,27.34-15.5"/>
              <path class="st6" d="M172.8-66.1s-87.36,3.13-74.63,36.68C109.2-.35,151.11,21.6,236.56,74.68c76.78,47.69,136.53,99.86,151.65,142.77,8.87,25.17,0,45.49,0,45.49"/>
            </g>
            <g>
              <path class="st6" d="M166.08,402.95s-87.84.15-70.76-35.77c20.58-43.28,157.83-95.78,234.84-172.95,76.91-77.08,50.88-118.71,50.88-118.71"/>
              <path class="st6" d="M395.26,120.81s16.35,60.76-12.87,97.16c-69.33,86.35-215.42,135.92-242.31,170.38-11.17,14.3,24.39,14.6,24.39,14.6"/>
              <path class="st6" d="M287.23-30.14s83.74,35.92,51.09,105.33c-39.44,83.83-259.1,176.91-296.03,246.68-38.28,72.33,122.18,81.07,122.18,81.07"/>
              <path class="st6" d="M41.57,367.62s-85.13-31.7-46.26-103.72C44.37,172.99,253.39,91.72,290.32,15.35c33.4-69.05-125.85-81.46-125.85-81.46"/>
              <path class="st6" d="M-70.51,171.8s-3.84-20.86,19.68-50.99C-27.02,90.31-13.98,77.22,54.25,34.08,118.48-6.54,172.64-27.52,191.81-50.6c11.68-14.06-27.34-15.5-27.34-15.5"/>
              <path class="st6" d="M164.46-66.1s87.36,3.13,74.63,36.68C228.06-.35,186.15,21.6,100.7,74.68,23.92,122.37-35.83,174.54-50.95,217.45c-8.87,25.17,0,45.49,0,45.49"/>
            </g>
          </g>
        </g>
      </g>
      <g id="Dot_Line">
        <path class="st7" d="M233.23,16.8c83.94,35.64,123.16,132.73,87.53,216.67-35.64,83.94-132.73,123.16-216.67,87.53C20.14,285.36-19.08,188.27,16.56,104.33,52.19,20.38,149.28-18.84,233.23,16.8Z"/>
      </g>
      <path class="st8" d="M271.77,28.24c3.07,3.18,2.98,8.25-.2,11.31-3.18,3.07-8.25,2.98-11.31-.2-3.07-3.18-2.98-8.25.2-11.31s8.25-2.98,11.31.2Z"/>
      <path class="st12" d="M326.87,223.82c1.57,1.63,1.52,4.22-.1,5.79s-4.22,1.52-5.79-.1-1.52-4.22.1-5.79,4.22-1.52,5.79.1Z"/>
      <path class="st3" d="M229.04,320.6c3.07,3.18,2.98,8.25-.2,11.31-3.18,3.07-8.25,2.98-11.31-.2-3.07-3.18-2.98-8.25.2-11.31s8.25-2.98,11.31.2Z"/>
      <path class="st2" d="M67.43,294.51c1.57,1.63,1.52,4.22-.1,5.79s-4.22,1.52-5.79-.1-1.52-4.22.1-5.79,4.22-1.52,5.79.1Z"/>
      <path class="st5" d="M15.52,117.72c3.07,3.18,2.98,8.25-.2,11.31-3.18,3.07-8.25,2.98-11.31-.2s-2.98-8.25.2-11.31c3.18-3.07,8.25-2.98,11.31.2Z"/>
      <path class="st4" d="M128.62,6.16c1.57,1.63,1.52,4.22-.1,5.79s-4.22,1.52-5.79-.1-1.52-4.22.1-5.79,4.22-1.52,5.79.1Z"/>
      <g>
        <path id="Green" class="st3" d="M110.12,232.64h107.41c27.3,0,48.49-20.68,48.49-47.02s-21.95-46.64-51.1-46.51c-10.82-21.9-30.54-35.39-55.42-35.39-31.82,0-58.23,25.2-60.96,57.4-16.29,4.52-27.94,18.14-27.94,35.64,0,20.81,15.46,35.89,39.52,35.89Z"/>
        <path id="Yellow-White" class="st9" d="M131.94,211.85h67.13c17.06,0,30.3-12.93,30.3-29.39s-13.72-29.15-31.94-29.08c-6.76-13.68-19.09-22.11-34.64-22.11-19.89,0-36.39,15.75-38.1,35.87-10.18,2.82-17.46,11.33-17.46,22.27,0,13.01,9.66,22.43,24.7,22.43Z"/>
        <path id="Blue" class="st5" d="M133.96,209.62h63.4c16.12,0,28.62-12.21,28.62-27.76s-12.96-27.54-30.16-27.46c-6.39-12.92-18.03-20.89-32.72-20.89-18.78,0-34.37,14.87-35.98,33.88-9.61,2.67-16.49,10.71-16.49,21.03,0,12.28,9.13,21.18,23.33,21.18h0Z"/>
        <path id="Red-White" class="st9" d="M144.06,198.43h44.76c11.37,0,20.21-8.62,20.21-19.6s-9.15-19.43-21.29-19.38c-4.51-9.12-12.73-14.74-23.09-14.74-13.26,0-24.26,10.5-25.4,23.92-6.79,1.88-11.64,7.56-11.64,14.85,0,8.67,6.45,14.96,16.47,14.96h-.01Z"/>
        <path id="Red" class="st8" d="M146.08,196.19h41.02c10.43,0,18.52-7.9,18.52-17.96s-8.39-17.82-19.51-17.76c-4.13-8.36-11.66-13.52-21.17-13.52-12.15,0-22.24,9.62-23.28,21.92-6.22,1.72-10.67,6.93-10.67,13.61,0,7.95,5.9,13.71,15.09,13.71Z"/>
      </g>
    </g>
  </g>
</svg>