<?xml version="1.0" encoding="UTF-8"?><svg id="Jego" xmlns="http://www.w3.org/2000/svg" viewBox="0 0 288 190"><defs><style>.cls-1{fill:#00a14b;}.cls-2{fill:#f8ba16;}.cls-3{fill:#ed1c24;}.cls-4{fill:#f1f2f2;}</style></defs><path id="Green" class="cls-1" d="M58.24,190h158.3c40.23,0,71.46-30.48,71.46-69.3s-32.35-68.74-75.31-68.55C196.75,19.88,167.68,0,131.01,0,84.12,0,45.2,37.14,41.17,84.59,17.16,91.25,0,111.32,0,137.11c0,30.67,22.79,52.89,58.24,52.89Z"/><path id="Yellow-White" class="cls-4" d="M90.4,159.37h98.94c25.14,0,44.66-19.05,44.66-43.31s-20.22-42.96-47.07-42.85c-9.96-20.16-28.13-32.59-51.05-32.59-29.31,0-53.63,23.21-56.15,52.87-15,4.16-25.73,16.7-25.73,32.82,0,19.17,14.24,33.06,36.4,33.06Z"/><path id="Blue" class="cls-2" d="M93.38,156.08h93.44c23.75,0,42.18-17.99,42.18-40.91s-19.1-40.58-44.45-40.47c-9.41-19.04-26.57-30.78-48.22-30.78-27.68,0-50.65,21.92-53.03,49.93-14.17,3.93-24.3,15.78-24.3,31,0,18.1,13.45,31.22,34.38,31.22Z"/><path id="Red-White" class="cls-4" d="M108.27,139.58h65.96c16.76,0,29.78-12.7,29.78-28.88s-13.48-28.64-31.38-28.56c-6.64-13.44-18.76-21.73-34.03-21.73-19.54,0-35.75,15.47-37.43,35.25-10,2.77-17.15,11.14-17.15,21.88,0,12.78,9.5,22.04,24.27,22.04Z"/><path id="Red" class="cls-3" d="M111.24,136.28h60.46c15.37,0,27.29-11.64,27.29-26.47s-12.36-26.26-28.76-26.18c-6.09-12.32-17.19-19.92-31.2-19.92-17.91,0-32.77,14.18-34.31,32.31-9.17,2.54-15.72,10.21-15.72,20.06,0,11.71,8.7,20.2,22.24,20.2Z"/></svg>